<?xml version="1.0" standalone="no"?>
<!DOCTYPE svg PUBLIC "-//W3C//DTD SVG 20010904//EN" "http://www.w3.org/TR/2001/REC-SVG-20010904/DTD/svg10.dtd">
<svg xmlns="http://www.w3.org/2000/svg" version="1.0" width="300" height="300" viewBox="0 0 300.000000 300.000000" preserveAspectRatio="xMidYMid meet">
<metadata>
Created by potrace 1.10, written by Peter Selinger 2001-2011
</metadata>
<g transform="translate(0.000000,300.000000) scale(0.100000,-0.100000)" fill="#000000" stroke="none">
<path d="M704 2370 c19 -144 73 -284 150 -388 l47 -64 -16 -71 c-10 -42 -20 -153 -25 -267 -5 -108 -16 -232 -25 -275 -24 -120 -84 -290 -169 -484 -42 -95 -75 -176 -72 -178 2 -3 203 144 447 326 410 306 440 330 413 336 -80 18 -175 50 -238 82 l-70 35 68 32 68 31 -49 17 c-108 39 -173 131 -173 247 0 72 29 150 68 185 21 18 24 18 64 2 24 -9 58 -25 77 -37 l34 -21 -31 -15 c-67 -32 -89 -128 -41 -179 59 -64 141 -62 186 5 l23 34 36 -76 c20 -42 33 -81 29 -87 -3 -6 -24 -19 -45 -30 -21 -11 -41 -24 -45 -29 -3 -5 27 -20 66 -33 60 -19 75 -29 95 -60 13 -20 28 -39 33 -42 10 -7 51 44 51 63 0 6 35 37 79 69 l79 58 -87 33 c-47 19 -106 43 -131 54 l-45 20 30 8 c52 16 206 37 313 44 l102 7 0 32 c0 39 -32 93 -65 108 -14 6 -25 14 -25 17 0 4 34 23 75 44 l75 37 30 -42 c33 -45 60 -123 60 -174 0 -36 -12 -32 154 -50 l59 -7 -7 54 c-4 30 -18 85 -31 124 l-23 69 38 56 c75 110 112 203 135 339 8 46 14 86 12 87 -2 2 -34 -27 -73 -64 -116 -114 -205 -168 -373 -226 -57 -20 -127 -48 -155 -62 -121 -61 -216 -163 -258 -276 -20 -57 -23 -59 -32 -37 -55 135 -129 227 -231 288 -31 19 -124 58 -206 87 -182 63 -262 109 -375 216 l-87 83 7 -55z"/>
<path d="M2320 1498 c-86 -162 -185 -302 -288 -409 -81 -85 -99 -110 -126 -177 -60 -149 -183 -305 -319 -408 l-59 -44 77 0 c66 0 86 5 152 35 235 108 451 322 548 540 60 136 77 218 82 398 4 99 2 167 -4 167 -5 0 -33 -46 -63 -102z"/>
<path d="M1860 1378 l-175 -131 -7 -86 c-13 -152 -70 -284 -156 -365 l-31 -28 -7 37 c-7 40 2 232 13 274 6 25 25 38 -577 -410 l-274 -204 327 -3 327 -2 72 36 c137 69 224 137 309 242 101 125 179 314 195 470 9 80 23 62 31 -38 3 -39 9 -70 13 -70 3 0 14 26 24 58 23 74 93 223 139 295 l37 57 -43 0 c-38 -1 -58 -12 -217 -132z"/>
</g>
</svg>